<svg xmlns="http://www.w3.org/2000/svg" width="146.092" height="13.843" viewBox="0 0 146.092 13.843">
  <g id="Group_355" data-name="Group 355" transform="translate(-710.742 -47.831)">
    <g id="Group_354" data-name="Group 354" transform="translate(710.742 47.831)">
      <g id="Group_353" data-name="Group 353">
        <path id="Path_32" data-name="Path 32" d="M805.787,48.321h10.269l-.217,1.075h-4.425l-2.53,12.082h-1.415L809.985,49.4h-4.415l.216-1.075Zm10.791,0-1.444,6.823c-.119.563-.2,1.043-.241,1.442a7.919,7.919,0,0,0-.048,1.078,3.842,3.842,0,0,0,1.38,2.93,5.077,5.077,0,0,0,3.415,1.135,5.6,5.6,0,0,0,4.045-1.444,8.511,8.511,0,0,0,2.147-4.491l1.571-7.472h-1.414L824.381,56a6.818,6.818,0,0,1-1.659,3.53,4.2,4.2,0,0,1-3.073,1.135,3.44,3.44,0,0,1-2.429-.886,3.1,3.1,0,0,1-1.006-2.282,4.9,4.9,0,0,1,.023-.63,5.286,5.286,0,0,1,.114-.695l1.641-7.851ZM829.907,49.4l-1.012,4.857q.2.02.442.029c.162.006.394.009.7.009a6.618,6.618,0,0,0,3.471-.749,2.281,2.281,0,0,0,1.162-2.131,1.786,1.786,0,0,0-.77-1.5,3.643,3.643,0,0,0-2.1-.518Zm-1.219-1.075h3.4a5.22,5.22,0,0,1,3.031.755,2.593,2.593,0,0,1,1.117,2.162,2.989,2.989,0,0,1-1.03,2.463,5.8,5.8,0,0,1-3.134,1.21,2.308,2.308,0,0,1,1.158.613,3.09,3.09,0,0,1,.665,1.306l1.351,4.649h-1.425l-1.34-4.611a1.824,1.824,0,0,0-.856-1.182,5.5,5.5,0,0,0-2.244-.309h-.735l-1.249,6.1h-1.436l2.726-13.157Zm9.663,0-2.746,13.157h1.373l2.766-13.157Zm9.851.47-.415,1.161a5.72,5.72,0,0,0-1.356-.544,5.871,5.871,0,0,0-1.46-.181,4.538,4.538,0,0,0-2.575.654,1.888,1.888,0,0,0-.938,1.7q.032,1.048,2.031,2.244l.066.034a11.753,11.753,0,0,1,2.786,2.055,2.776,2.776,0,0,1,.615,1.694,3.417,3.417,0,0,1-1.452,2.914,6.128,6.128,0,0,1-3.877,1.17,8.876,8.876,0,0,1-1.926-.2,7.537,7.537,0,0,1-1.709-.6l.392-1.22a7.1,7.1,0,0,0,1.621.661,6.5,6.5,0,0,0,1.671.218,4.386,4.386,0,0,0,2.719-.783,2.324,2.324,0,0,0,.992-2.02,2.025,2.025,0,0,0-.431-1.211,7.258,7.258,0,0,0-1.844-1.374c-.157-.1-.383-.231-.682-.4a6.5,6.5,0,0,1-1.081-.686,4.809,4.809,0,0,1-1.021-1.138,2.347,2.347,0,0,1-.344-1.131,3.1,3.1,0,0,1,1.217-2.693,5.612,5.612,0,0,1,3.527-.992,9.992,9.992,0,0,1,1.867.161,7.366,7.366,0,0,1,1.605.505Zm1.685-.47-2.747,13.157h1.375l2.415-11.962,3.228,11.962H855.3l8.153-12.02-2.478,12.02h1.376L865.1,48.321h-2.191l-7.875,11.526-3.067-11.526Zm26.5,5.081a4.154,4.154,0,0,0-4.434-4.3,5.278,5.278,0,0,0-2.241.5,5.738,5.738,0,0,0-1.886,1.394,7.56,7.56,0,0,0-1.423,2.437,7.65,7.65,0,0,0-.447,2.819,4.557,4.557,0,0,0,1.221,3.187,4.137,4.137,0,0,0,3.08,1.175,5.607,5.607,0,0,0,2.479-.524,5.975,5.975,0,0,0,2-1.641,6.792,6.792,0,0,0,1.25-2.306,7.93,7.93,0,0,0,.4-2.731Zm-4.33-5.331a5.975,5.975,0,0,1,4.161,1.415,5.113,5.113,0,0,1,1.645,3.815,9.028,9.028,0,0,1-.324,2.718,8.2,8.2,0,0,1-1.1,2.4,7.534,7.534,0,0,1-2.667,2.432,7.135,7.135,0,0,1-3.439.854,5.953,5.953,0,0,1-4.221-1.476,5.456,5.456,0,0,1-1.668-4,8.169,8.169,0,0,1,.638-3.423,7.933,7.933,0,0,1,1.935-2.819,7.154,7.154,0,0,1,2.311-1.409A7.555,7.555,0,0,1,872.061,48.071Z" transform="translate(-731.78 -47.884)" fill="#fff" fill-rule="evenodd"/>
        <path id="Path_33" data-name="Path 33" d="M713.579,48.117h2.657l-2.394,11.069h5.5l-.423,2h-8.182l2.837-13.066Zm15.767,5.119a3.841,3.841,0,0,0-.784-2.565,2.691,2.691,0,0,0-2.167-.919,3.382,3.382,0,0,0-1.617.417,4.308,4.308,0,0,0-1.371,1.184,6.773,6.773,0,0,0-1.107,2.125,7.981,7.981,0,0,0-.393,2.473,3.849,3.849,0,0,0,.783,2.555,2.659,2.659,0,0,0,2.148.93,3.31,3.31,0,0,0,1.691-.446,5.087,5.087,0,0,0,1.477-1.384,6.386,6.386,0,0,0,.984-2,8.117,8.117,0,0,0,.355-2.373Zm-2.839-5.405a7.181,7.181,0,0,0-2.746.524,6.5,6.5,0,0,0-2.237,1.527,8.242,8.242,0,0,0-1.745,2.7,8.463,8.463,0,0,0-.614,3.178,5.755,5.755,0,0,0,1.471,4.151,5.245,5.245,0,0,0,3.979,1.542,7.649,7.649,0,0,0,2.807-.5,6.5,6.5,0,0,0,2.25-1.457,7.944,7.944,0,0,0,1.794-2.759,9.3,9.3,0,0,0,.622-3.422,5.415,5.415,0,0,0-1.464-4.036,5.614,5.614,0,0,0-4.117-1.444Zm7.845.286h2.654l-1.63,7.486a5.929,5.929,0,0,0-.138.752,6.232,6.232,0,0,0-.041.728,2.5,2.5,0,0,0,.642,1.79,2.245,2.245,0,0,0,1.7.675,2.593,2.593,0,0,0,2.1-.942,7.561,7.561,0,0,0,1.272-3.151l1.64-7.338h2.566l-1.668,7.852a7.558,7.558,0,0,1-2.106,4.175,5.851,5.851,0,0,1-4.053,1.344,5,5,0,0,1-3.466-1.136,3.961,3.961,0,0,1-1.266-3.1,8.261,8.261,0,0,1,.062-1c.041-.348.1-.707.182-1.072l1.553-7.062Zm11.914,0-2.818,13.066h2.435l2.359-11.246,1.4,11.246h2.379l6.217-11.265-2.451,11.265h2.451l2.857-13.066h-4.2l-5.45,10.131-1.112-10.131Zm21.1,1.977-3.587,6.077h4.484l-.9-6.077Zm-1.292-1.977h3.238l2.306,13.066h-2.6l-.508-3.091h-5.8l-1.844,3.091h-2.8l8.016-13.066Zm10.63,1.857-.786,3.766h.047c.4.025.691.038.869.038a4.891,4.891,0,0,0,2.6-.565,1.834,1.834,0,0,0,.895-1.658,1.371,1.371,0,0,0-.552-1.166,2.6,2.6,0,0,0-1.583-.415Zm-2.17-1.857h4.223a5.365,5.365,0,0,1,3.193.794,2.726,2.726,0,0,1,1.087,2.351,3.05,3.05,0,0,1-.966,2.345,4.514,4.514,0,0,1-2.727,1.054,2.342,2.342,0,0,1,.9.713,3.489,3.489,0,0,1,.521,1.284l1.01,4.526H779.2l-1-4.35a1.313,1.313,0,0,0-.594-.932,3.527,3.527,0,0,0-1.6-.254h-.479l-1.189,5.537H771.72Z" transform="translate(-710.742 -47.831)" fill="#fff" fill-rule="evenodd"/>
      </g>
    </g>
  </g>
</svg>
